<svg width="400" height="120" viewBox="0 0 400 120" fill="none" xmlns="http://www.w3.org/2000/svg">
<path fill-rule="evenodd" clip-rule="evenodd" d="M7.28199 44.3459C10.9561 40.3641 16.1117 38.1016 21.5111 38.1016H37.6228C45.9221 38.1016 53.9901 40.8538 60.5787 45.9324L61.1493 46.3723C64.6236 49.0504 67.5525 52.3772 69.7756 56.1709C72.8667 61.4456 74.4971 67.4576 74.4971 73.5813V91.9726C74.4971 97.1974 72.3622 102.192 68.5932 105.786C61.5005 112.548 50.4565 112.758 43.1148 106.271L42.9392 106.115C38.7954 102.454 36.4198 97.1732 36.4198 91.6237V76.9478H21.1772C16.0911 76.9478 11.2133 74.9145 7.61688 71.2953C0.323033 63.9551 0.105394 52.1237 7.12427 44.5168L7.28199 44.3459ZM13.4964 50.4713L13.6541 50.3004C15.6828 48.1017 18.5297 46.8524 21.5111 46.8524H37.6228C44.0104 46.8524 50.2201 48.9707 55.2911 52.8795L55.8617 53.3194C58.4489 55.3137 60.63 57.7911 62.2855 60.6162C64.5874 64.5442 65.8015 69.0211 65.8015 73.5813V91.9726C65.8015 94.7945 64.6485 97.4922 62.6129 99.4329C58.7822 103.085 52.8174 103.199 48.8522 99.6948L48.6765 99.5396C46.413 97.5395 45.1154 94.6551 45.1154 91.6237V73.2982C45.1154 70.4809 42.8459 68.197 40.0463 68.197H21.1772C18.3973 68.197 15.7313 67.0857 13.7656 65.1075C9.77903 61.0956 9.66007 54.629 13.4964 50.4713Z" fill="white"/>
<path fill-rule="evenodd" clip-rule="evenodd" d="M103.533 74.4832L103.375 74.6541C99.7009 78.6359 94.5452 80.8984 89.1458 80.8984H73.0341C64.7349 80.8984 56.6669 78.1462 50.0783 73.0675L55.3659 66.1205C60.4369 70.0293 66.6465 72.1476 73.0341 72.1476H89.1458C92.1273 72.1476 94.9741 70.8983 97.0029 68.6996L97.1606 68.5287C100.997 64.371 100.878 57.9044 96.8913 53.8925C94.9257 51.9143 92.2596 50.803 89.4798 50.803H70.6106C67.811 50.803 65.5416 48.5191 65.5416 45.7018V27.3763C65.5416 24.3449 64.2439 21.4605 61.9804 19.4604L61.8048 19.3052C57.8396 15.8014 51.8748 15.915 48.0441 19.5671C46.0085 21.5078 44.8554 24.2055 44.8554 27.0274V45.4187C44.8554 49.9789 46.0695 54.4558 48.3714 58.3839C50.0269 61.2089 52.208 63.6863 54.7952 65.6806L55.3659 66.1205L50.0783 73.0675L49.5076 72.6277C46.0333 69.9496 43.1045 66.6228 40.8813 62.8291C37.7902 57.5544 36.1598 51.5424 36.1598 45.4187V27.0274C36.1598 21.8026 38.2947 16.8077 42.0637 13.2144C49.1564 6.45236 60.2004 6.24214 67.5421 12.7295L67.7178 12.8846C71.8615 16.5462 74.2372 21.8268 74.2372 27.3763V42.0522H89.4798C94.5659 42.0522 99.4436 44.0855 103.04 47.7047C110.334 55.0449 110.552 66.8764 103.533 74.4832Z" fill="#F46700"/>
<path d="M65.802 71.0927L74.2367 72.2439V81.4537H65.802V71.0927Z" fill="#F46700"/>
<path d="M148.53 61.9925C145.377 61.9925 142.552 61.4775 140.055 60.4475C137.558 59.4175 135.551 57.8931 134.037 55.8743C132.563 53.8555 131.785 51.4248 131.703 48.582H142.88C143.044 50.1888 143.596 51.4248 144.538 52.29C145.48 53.114 146.708 53.5259 148.223 53.5259C149.778 53.5259 151.007 53.1757 151.907 52.4754C152.808 51.7338 153.258 50.7244 153.258 49.4472C153.258 48.376 152.89 47.4902 152.153 46.7898C151.457 46.0894 150.577 45.5126 149.512 45.0594C148.489 44.6062 147.015 44.0912 145.091 43.5144C142.307 42.6492 140.034 41.784 138.274 40.9188C136.514 40.0536 134.999 38.7764 133.73 37.0872C132.46 35.398 131.826 33.1938 131.826 30.4746C131.826 26.437 133.279 23.2852 136.186 21.0192C139.093 18.712 142.88 17.5584 147.547 17.5584C152.296 17.5584 156.124 18.712 159.031 21.0192C161.938 23.2852 163.493 26.4576 163.698 30.5364H152.337C152.255 29.1356 151.743 28.0438 150.802 27.261C149.86 26.437 148.652 26.025 147.179 26.025C145.909 26.025 144.886 26.3752 144.108 27.0756C143.33 27.7348 142.941 28.703 142.941 29.9802C142.941 31.381 143.596 32.4728 144.906 33.2556C146.216 34.0384 148.264 34.883 151.047 35.7894C153.831 36.737 156.083 37.6434 157.803 38.5086C159.563 39.3738 161.078 40.6304 162.347 42.2784C163.616 43.9264 164.251 46.0482 164.251 48.6438C164.251 51.1158 163.616 53.3611 162.347 55.3799C161.119 57.3987 159.318 59.0055 156.943 60.2003C154.568 61.3951 151.764 61.9925 148.53 61.9925Z" fill="white"/>
<path d="M189.198 61.5599L178.758 47.0988V61.5599H168.257V15.828H178.758V41.1042L189.137 27.0756H202.094L187.847 44.3796L202.217 61.5599H189.198Z" fill="white"/>
<path d="M209.044 23.4912C207.202 23.4912 205.687 22.9556 204.499 21.8844C203.353 20.772 202.78 19.4124 202.78 17.8056C202.78 16.1576 203.353 14.798 204.499 13.7268C205.687 12.6144 207.202 12.0582 209.044 12.0582C210.845 12.0582 212.319 12.6144 213.465 13.7268C214.653 14.798 215.246 16.1576 215.246 17.8056C215.246 19.4124 214.653 20.772 213.465 21.8844C212.319 22.9556 210.845 23.4912 209.044 23.4912ZM214.264 27.0756V61.5599H203.763V27.0756H214.264Z" fill="white"/>
<path d="M240.297 26.7048C244.309 26.7048 247.503 28.0232 249.877 30.66C252.293 33.2556 253.501 36.84 253.501 41.4132V61.5599H243.061V42.8346C243.061 40.5274 242.467 38.7352 241.28 37.458C240.093 36.1808 238.496 35.5422 236.49 35.5422C234.484 35.5422 232.887 36.1808 231.7 37.458C230.512 38.7352 229.919 40.5274 229.919 42.8346V61.5599H219.418V27.0756H229.919V31.6488C230.983 30.1244 232.416 28.9296 234.218 28.0644C236.019 27.158 238.045 26.7048 240.297 26.7048Z" fill="white"/>
<path d="M256.561 39.8064C256.561 35.5216 257.482 31.7106 259.324 28.3734C261.166 24.995 263.725 22.3788 267 20.5248C270.317 18.6296 274.063 17.682 278.239 17.682C283.356 17.682 287.737 19.0416 291.381 21.7608C295.024 24.48 297.46 28.188 298.688 32.8848H287.143C286.283 31.072 285.055 29.6918 283.459 28.7442C281.903 27.7966 280.122 27.3228 278.116 27.3228C274.881 27.3228 272.261 28.4558 270.255 30.7218C268.249 32.9878 267.246 36.016 267.246 39.8064C267.246 43.5968 268.249 46.625 270.255 48.891C272.261 51.157 274.881 52.29 278.116 52.29C280.122 52.29 281.903 51.8162 283.459 50.8686C285.055 49.921 286.283 48.5408 287.143 46.728H298.688C297.46 51.4248 295.024 55.1327 291.381 57.8519C287.737 60.5299 283.356 61.8689 278.239 61.8689C274.063 61.8689 270.317 60.9419 267 59.0879C263.725 57.1927 261.166 54.5765 259.324 51.2394C257.482 47.9022 256.561 44.0912 256.561 39.8064Z" fill="white"/>
<path d="M300.575 44.256C300.575 40.7128 301.23 37.6022 302.54 34.9242C303.891 32.2462 305.713 30.1862 308.006 28.7442C310.298 27.3022 312.857 26.5812 315.682 26.5812C318.098 26.5812 320.206 27.0756 322.007 28.0644C323.85 29.0532 325.262 30.351 326.245 31.9578V27.0756H336.746V61.5599H326.245V56.6777C325.221 58.2845 323.788 59.5823 321.946 60.5711C320.145 61.5599 318.036 62.0543 315.621 62.0543C312.837 62.0543 310.298 61.3333 308.006 59.8913C305.713 58.4081 303.891 56.3275 302.54 53.6495C301.23 50.9304 300.575 47.7992 300.575 44.256ZM326.245 44.3178C326.245 41.681 325.508 39.6004 324.034 38.076C322.601 36.5516 320.841 35.7894 318.753 35.7894C316.665 35.7894 314.884 36.5516 313.41 38.076C311.977 39.5592 311.26 41.6192 311.26 44.256C311.26 46.8928 311.977 48.994 313.41 50.5596C314.884 52.084 316.665 52.8462 318.753 52.8462C320.841 52.8462 322.601 52.084 324.034 50.5596C325.508 49.0352 326.245 46.9546 326.245 44.3178Z" fill="white"/>
<path d="M352.388 32.823C353.616 30.9278 355.151 29.4446 356.994 28.3734C358.836 27.261 360.883 26.7048 363.135 26.7048V37.8906H360.249C357.628 37.8906 355.663 38.4674 354.353 39.621C353.043 40.7334 352.388 42.711 352.388 45.5538V61.5599H341.887V27.0756H352.388V32.823Z" fill="white"/>
<path d="M398 43.7616C398 44.7504 397.939 45.7804 397.816 46.8516H374.05C374.213 48.994 374.889 50.642 376.076 51.7956C377.304 52.908 378.799 53.4642 380.559 53.4642C383.179 53.4642 385.001 52.3518 386.025 50.127H397.202C396.628 52.393 395.585 54.4323 394.07 56.2451C392.596 58.0579 390.733 59.4793 388.481 60.5093C386.23 61.5393 383.712 62.0543 380.928 62.0543C377.571 62.0543 374.582 61.3333 371.962 59.8913C369.342 58.4493 367.295 56.3893 365.821 53.7114C364.347 51.0334 363.61 47.9022 363.61 44.3178C363.61 40.7334 364.326 37.6022 365.759 34.9242C367.233 32.2462 369.28 30.1862 371.9 28.7442C374.521 27.3022 377.53 26.5812 380.928 26.5812C384.244 26.5812 387.192 27.2816 389.771 28.6824C392.35 30.0832 394.356 32.0814 395.789 34.677C397.263 37.2726 398 40.3008 398 43.7616ZM387.253 40.9806C387.253 39.1678 386.639 37.7258 385.411 36.6546C384.183 35.5834 382.647 35.0478 380.805 35.0478C379.044 35.0478 377.55 35.5628 376.322 36.5928C375.135 37.6228 374.398 39.0854 374.111 40.9806H387.253Z" fill="white"/>
<path d="M130.487 87.759C130.487 85.2375 131.064 82.9757 132.219 80.9733C133.398 78.971 134.982 77.4137 136.972 76.3013C138.986 75.1642 141.185 74.5956 143.568 74.5956C146.294 74.5956 148.714 75.2754 150.826 76.635C152.964 77.9699 154.511 79.8733 155.469 82.3453H150.421C149.758 80.9857 148.837 79.9722 147.658 79.3047C146.479 78.6373 145.115 78.3036 143.568 78.3036C141.873 78.3036 140.362 78.6867 139.036 79.4531C137.709 80.2194 136.665 81.3194 135.904 82.7532C135.167 84.1869 134.798 85.8555 134.798 87.759C134.798 89.6624 135.167 91.331 135.904 92.7648C136.665 94.1985 137.709 95.3109 139.036 96.102C140.362 96.8683 141.873 97.2514 143.568 97.2514C145.115 97.2514 146.479 96.9177 147.658 96.2503C148.837 95.5828 149.758 94.5693 150.421 93.2097H155.469C154.511 95.6817 152.964 97.5852 150.826 98.92C148.714 100.255 146.294 100.922 143.568 100.922C141.16 100.922 138.962 100.366 136.972 99.2538C134.982 98.1166 133.398 96.5469 132.219 94.5446C131.064 92.5423 130.487 90.2804 130.487 87.759Z" fill="#F46700"/>
<path d="M164.586 73.2607V100.7H160.386V73.2607H164.586Z" fill="#F46700"/>
<path d="M172.238 77.562C171.477 77.562 170.838 77.3024 170.322 76.7833C169.806 76.2642 169.548 75.6215 169.548 74.8552C169.548 74.0888 169.806 73.4461 170.322 72.927C170.838 72.4079 171.477 72.1483 172.238 72.1483C172.975 72.1483 173.602 72.4079 174.117 72.927C174.633 73.4461 174.891 74.0888 174.891 74.8552C174.891 75.6215 174.633 76.2642 174.117 76.7833C173.602 77.3024 172.975 77.562 172.238 77.562ZM174.302 80.2688V100.7H170.101V80.2688H174.302Z" fill="#F46700"/>
<path d="M190.06 79.9351C191.657 79.9351 193.081 80.2688 194.334 80.9363C195.611 81.6037 196.606 82.5925 197.319 83.9027C198.031 85.2128 198.387 86.7949 198.387 88.6489V100.7H194.224V89.2792C194.224 87.45 193.769 86.0533 192.86 85.0892C191.951 84.1004 190.711 83.606 189.139 83.606C187.567 83.606 186.314 84.1004 185.38 85.0892C184.472 86.0533 184.017 87.45 184.017 89.2792V100.7H179.817V80.2688H184.017V82.6049C184.705 81.7644 185.577 81.1093 186.633 80.6396C187.714 80.1699 188.856 79.9351 190.06 79.9351Z" fill="#F46700"/>
<path d="M205.882 77.562C205.121 77.562 204.482 77.3024 203.966 76.7833C203.45 76.2642 203.193 75.6215 203.193 74.8552C203.193 74.0888 203.45 73.4461 203.966 72.927C204.482 72.4079 205.121 72.1483 205.882 72.1483C206.619 72.1483 207.246 72.4079 207.762 72.927C208.277 73.4461 208.535 74.0888 208.535 74.8552C208.535 75.6215 208.277 76.2642 207.762 76.7833C207.246 77.3024 206.619 77.562 205.882 77.562ZM207.946 80.2688V100.7H203.745V80.2688H207.946Z" fill="#F46700"/>
<path d="M212.06 90.4658C212.06 88.3646 212.478 86.523 213.313 84.9409C214.173 83.3341 215.352 82.0981 216.851 81.2329C218.349 80.3677 220.068 79.9351 222.009 79.9351C224.465 79.9351 226.492 80.5284 228.089 81.7149C229.71 82.8768 230.803 84.5454 231.368 86.7207H226.836C226.467 85.7072 225.878 84.9162 225.067 84.3476C224.257 83.7791 223.237 83.4948 222.009 83.4948C220.29 83.4948 218.914 84.1128 217.882 85.3488C216.875 86.5601 216.372 88.2657 216.372 90.4658C216.372 92.6659 216.875 94.3839 217.882 95.6199C218.914 96.8559 220.29 97.4739 222.009 97.4739C224.441 97.4739 226.05 96.3986 226.836 94.248H231.368C230.779 96.3244 229.673 97.9807 228.052 99.2167C226.431 100.428 224.416 101.034 222.009 101.034C220.068 101.034 218.349 100.601 216.851 99.7358C215.352 98.8459 214.173 97.6099 213.313 96.0278C212.478 94.421 212.06 92.567 212.06 90.4658Z" fill="#F46700"/>
<path d="M262.526 74.9293V100.7H258.325V83.0498L250.514 100.7H247.603L239.755 83.0498V100.7H235.554V74.9293H240.086L249.077 95.1379L258.031 74.9293H262.526Z" fill="#F46700"/>
<path d="M266.647 90.3917C266.647 88.3399 267.064 86.523 267.899 84.9409C268.759 83.3588 269.914 82.1352 271.363 81.27C272.837 80.3801 274.458 79.9351 276.227 79.9351C277.823 79.9351 279.211 80.2565 280.39 80.8992C281.594 81.5172 282.552 82.2959 283.264 83.2352V80.2688H287.502V100.7H283.264V97.6593C282.552 98.6234 281.582 99.4268 280.354 100.07C279.125 100.712 277.725 101.034 276.153 101.034C274.409 101.034 272.812 100.589 271.363 99.6987C269.914 98.7841 268.759 97.5234 267.899 95.9166C267.064 94.285 266.647 92.4434 266.647 90.3917ZM283.264 90.4658C283.264 89.0568 282.97 87.8331 282.38 86.7949C281.815 85.7567 281.066 84.9656 280.132 84.4218C279.199 83.8779 278.192 83.606 277.111 83.606C276.03 83.606 275.023 83.8779 274.09 84.4218C273.156 84.9409 272.395 85.7196 271.805 86.7578C271.24 87.7713 270.958 88.9826 270.958 90.3917C270.958 91.8007 271.24 93.0367 271.805 94.0996C272.395 95.1626 273.156 95.9784 274.09 96.5469C275.048 97.0908 276.055 97.3627 277.111 97.3627C278.192 97.3627 279.199 97.0908 280.132 96.5469C281.066 96.0031 281.815 95.212 282.38 94.1738C282.97 93.1108 283.264 91.8748 283.264 90.4658Z" fill="#F46700"/>
<path d="M300.388 101.034C298.792 101.034 297.355 100.749 296.077 100.181C294.824 99.5875 293.83 98.7964 293.093 97.8076C292.356 96.7941 291.963 95.6694 291.914 94.4334H296.261C296.335 95.2986 296.74 96.0278 297.477 96.6211C298.239 97.1896 299.185 97.4739 300.315 97.4739C301.494 97.4739 302.403 97.2514 303.041 96.8065C303.704 96.3368 304.036 95.7435 304.036 95.0266C304.036 94.2603 303.668 93.6918 302.931 93.321C302.218 92.9502 301.076 92.5423 299.504 92.0973C297.981 91.6771 296.74 91.2692 295.782 90.8737C294.824 90.4782 293.989 89.8725 293.277 89.0568C292.589 88.241 292.245 87.1657 292.245 85.8308C292.245 84.7431 292.565 83.7543 293.203 82.8644C293.842 81.9498 294.751 81.2329 295.93 80.7138C297.134 80.1947 298.509 79.9351 300.057 79.9351C302.366 79.9351 304.22 80.5284 305.62 81.7149C307.045 82.8768 307.807 84.4712 307.905 86.4983H303.704C303.631 85.5836 303.262 84.8544 302.599 84.3105C301.936 83.7667 301.039 83.4948 299.909 83.4948C298.804 83.4948 297.956 83.7049 297.367 84.1251C296.777 84.5454 296.483 85.1016 296.483 85.7937C296.483 86.3376 296.679 86.7949 297.072 87.1657C297.465 87.5365 297.944 87.8331 298.509 88.0556C299.074 88.2534 299.909 88.5129 301.015 88.8343C302.489 89.2298 303.692 89.6377 304.626 90.0579C305.584 90.4535 306.407 91.0467 307.094 91.8378C307.782 92.6288 308.138 93.6794 308.163 94.9896C308.163 96.1514 307.844 97.1896 307.205 98.1043C306.566 99.0189 305.657 99.7358 304.478 100.255C303.324 100.774 301.96 101.034 300.388 101.034Z" fill="#F46700"/>
<path d="M317.602 83.7173V95.0266C317.602 95.793 317.774 96.3492 318.118 96.6952C318.487 97.0166 319.101 97.1773 319.96 97.1773H322.54V100.7H319.223C317.332 100.7 315.883 100.255 314.876 99.365C313.868 98.4751 313.365 97.029 313.365 95.0266V83.7173H310.97V80.2688H313.365V75.1889H317.602V80.2688H322.54V83.7173H317.602Z" fill="#F46700"/>
<path d="M345.019 89.9838C345.019 90.7501 344.97 91.4422 344.871 92.0602H329.359C329.482 93.6918 330.084 95.0019 331.164 95.9907C332.245 96.9795 333.572 97.4739 335.144 97.4739C337.404 97.4739 339 96.5222 339.934 94.6188H344.466C343.852 96.4975 342.734 98.0425 341.113 99.2538C339.516 100.44 337.527 101.034 335.144 101.034C333.203 101.034 331.459 100.601 329.912 99.7358C328.389 98.8459 327.185 97.6099 326.301 96.0278C325.441 94.421 325.011 92.567 325.011 90.4658C325.011 88.3646 325.429 86.523 326.264 84.9409C327.124 83.3341 328.315 82.0981 329.838 81.2329C331.385 80.3677 333.154 79.9351 335.144 79.9351C337.06 79.9351 338.767 80.3553 340.265 81.1958C341.764 82.0363 342.931 83.2229 343.766 84.7555C344.601 86.2634 345.019 88.0062 345.019 89.9838ZM340.634 88.6489C340.609 87.0915 340.057 85.8432 338.976 84.9038C337.895 83.9645 336.556 83.4948 334.96 83.4948C333.51 83.4948 332.27 83.9645 331.238 84.9038C330.206 85.8185 329.592 87.0668 329.396 88.6489H340.634Z" fill="#F46700"/>
<path d="M353.353 83.2352C353.967 82.197 354.778 81.3936 355.785 80.825C356.816 80.2317 358.032 79.9351 359.433 79.9351V84.3105H358.364C356.718 84.3105 355.465 84.7308 354.606 85.5713C353.771 86.4117 353.353 87.8702 353.353 89.9467V100.7H349.152V80.2688H353.353V83.2352Z" fill="#F46700"/>
</svg>
